<?xml version="1.0" encoding="utf-8"?>
<!-- Generator: Adobe Illustrator 20.0.0, SVG Export Plug-In . SVG Version: 6.00 Build 0)  -->
<svg version="1.1" id="Layer_1" xmlns="http://www.w3.org/2000/svg" xmlns:xlink="http://www.w3.org/1999/xlink" x="0px" y="0px"
	 viewBox="0 0 327 428.7" style="enable-background:new 0 0 327 428.7;" xml:space="preserve">
<style type="text/css">
	.st0{fill:#FFFFFF;}
</style>
<g>
	<path class="st0" d="M37.9,272.1c0-21.1,0-23.8-14.6-33.5l-4.9-3.2c-2.2-2.2-2.2-8.1,0.5-9.7c12.4-4.3,43.2-18.4,55.6-26.5
		c2.7,0,4.9,1.1,5.4,3.2c-1.1,18.9-2.2,44.8-2.2,67v97.2c0,38.9,1.1,44.3,20.5,47l11.3,1.6c3.8,2.7,2.7,11.9-1.1,13.5
		c-16.2-1.1-31.9-1.6-50.8-1.6c-19.4,0-35.6,0.5-50.8,1.6c-3.8-1.6-4.9-10.8-1.1-13.5l11.3-1.6c20-2.7,20.5-8.1,20.5-47V272.1z
		 M82.7,118.2c0,19.4-13.5,28.1-28.6,28.1c-16.7,0-27.5-12.4-27.5-27c0-17.8,13-29.2,29.2-29.2S82.7,103.1,82.7,118.2z"/>
	<path class="st0" d="M183.7,237c-9.2,0-9.2,1.1-9.2,15.7v113.9c0,38.9,1.1,45.4,20.5,47l19.4,1.6c3.8,2.7,2.7,11.9-1.1,13.5
		c-24.3-1.1-40-1.6-58.9-1.6c-19.4,0-35.6,0.5-51.8,1.6c-3.8-1.6-4.9-10.8-1.1-13.5l12.4-1.6c20-2.7,20.5-8.1,20.5-47V252.7
		c0-14.6,0-15.7-10.8-15.7h-18.9c-3.2-2.2-3.8-7-1.6-10.3l23.2-11.3c4.3-2.2,8.1-5.4,8.1-10.8c0-31.3,3.8-64.8,16.7-95
		C164.8,78.8,195.1,41,248.5,41c28.6,0,52.9,13,52.9,32.4c0,10.8-10.3,19.4-20.5,19.4c-5.9,0-9.2-2.2-13-6.5
		c-10.3-11.9-25.4-23.8-43.2-23.8c-16.7,0-30.2,10.3-38.3,29.7c-9.7,24.8-11.9,64.3-11.9,91.3v15.7c0,14.6,0,15.1,9.2,15.1h61.6
		c5.9,5.4,2.2,20.5-3.8,22.7H183.7z"/>
</g>
</svg>
